<svg width="640" height="480" viewBox="0 0 640 480" fill="none" xmlns="http://www.w3.org/2000/svg">
  <rect width="640" height="480" rx="24" fill="#0F172A"/>
  <rect x="28" y="28" width="584" height="424" rx="20" fill="url(#paint0_linear_10_2)"/>
  <circle cx="146" cy="144" r="74" fill="#F59E0B" fill-opacity="0.18"/>
  <circle cx="494" cy="348" r="116" fill="#38BDF8" fill-opacity="0.18"/>
  <path d="M129 301C162.667 261.667 198.667 242 237 242C294.5 242 307 300 363.5 300C401.167 300 437 280.333 471 241" stroke="#F8FAFC" stroke-width="18" stroke-linecap="round"/>
  <path d="M134 189C166.667 228.333 201.667 248 239 248C295 248 309.5 190 365.5 190C402.833 190 437.667 209.333 470 248" stroke="#FB7185" stroke-width="18" stroke-linecap="round"/>
  <text x="60" y="392" fill="#F8FAFC" font-family="Raleway, Arial, sans-serif" font-size="46" font-weight="700">Energy Balance</text>
  <text x="60" y="430" fill="#E2E8F0" font-family="Encode Sans, Arial, sans-serif" font-size="22">Health tracking and habit design</text>
  <defs>
    <linearGradient id="paint0_linear_10_2" x1="70" y1="54" x2="561" y2="428" gradientUnits="userSpaceOnUse">
      <stop stop-color="#1E293B"/>
      <stop offset="1" stop-color="#334155"/>
    </linearGradient>
  </defs>
</svg>
